<svg width="32" height="32" viewBox="0 0 32 32" fill="none" xmlns="http://www.w3.org/2000/svg">
<path d="M30.08 16.3333C30.08 15.2933 29.9867 14.2933 29.8133 13.3333H16V19.0066H23.8933C23.5533 20.8399 22.52 22.3933 20.9667 23.4333V27.1133H25.7067C28.48 24.5599 30.08 20.7999 30.08 16.3333Z" fill="#4285F4"/>
<path d="M16 30.6666C19.96 30.6666 23.28 29.3533 25.7066 27.1133L20.9666 23.4333C19.6533 24.3133 17.9733 24.8333 16 24.8333C12.18 24.8333 8.94664 22.2533 7.79331 18.7866H2.89331V22.5866C5.30664 27.38 10.2666 30.6666 16 30.6666Z" fill="#34A853"/>
<path d="M7.79338 18.7867C7.50004 17.9067 7.33338 16.9667 7.33338 16C7.33338 15.0333 7.50004 14.0933 7.79338 13.2133V9.41333H2.89338C1.86671 11.4571 1.33247 13.7128 1.33338 16C1.33338 18.3667 1.90004 20.6067 2.89338 22.5867L7.79338 18.7867Z" fill="#FBBC05"/>
<path d="M16 7.16659C18.1533 7.16659 20.0866 7.90659 21.6066 9.35992L25.8133 5.15325C23.2733 2.78659 19.9533 1.33325 16 1.33325C10.2666 1.33325 5.30664 4.61992 2.89331 9.41325L7.79331 13.2133C8.94664 9.74659 12.18 7.16659 16 7.16659Z" fill="#EA4335"/>
</svg>
